<svg width="4" height="4" viewBox="0 0 4 4" fill="none" xmlns="http://www.w3.org/2000/svg">
<path d="M0.578596 0.06527C0.242093 -0.159507 -0.159171 0.24179 0.0649527 0.57832L0.464947 1.17836C0.627209 1.42165 0.713801 1.70755 0.713801 2C0.713801 2.29245 0.627209 2.57835 0.464947 2.82164L0.0649527 3.42168C-0.159171 3.75821 0.242728 4.15951 0.579231 3.93473L1.17859 3.5347C1.42186 3.37243 1.70774 3.28583 2.00016 3.28583C2.29259 3.28583 2.57846 3.37243 2.82174 3.5347L3.42173 3.93473C3.75823 4.15951 4.15949 3.75821 3.93474 3.42168L3.53474 2.82164C3.37248 2.57835 3.28589 2.29245 3.28589 2C3.28589 1.70755 3.37248 1.42165 3.53474 1.17836L3.93474 0.57832C4.15949 0.24179 3.75823 -0.159507 3.42109 0.06527L2.82174 0.465296C2.57846 0.627572 2.29259 0.714171 2.00016 0.714171C1.70774 0.714171 1.42186 0.627572 1.17859 0.465296L0.578596 0.06527Z" fill="#070F2C"/>
</svg>
